<?xml version="1.0" encoding="UTF-8" standalone="no"?>
<!-- Created with Inkscape (http://www.inkscape.org/) -->

<svg
   xmlns:dc="http://purl.org/dc/elements/1.1/"
   xmlns:cc="http://creativecommons.org/ns#"
   xmlns:rdf="http://www.w3.org/1999/02/22-rdf-syntax-ns#"
   xmlns:svg="http://www.w3.org/2000/svg"
   xmlns="http://www.w3.org/2000/svg"
   xmlns:sodipodi="http://sodipodi.sourceforge.net/DTD/sodipodi-0.dtd"
   xmlns:inkscape="http://www.inkscape.org/namespaces/inkscape"
   width="100mm"
   height="20mm"
   viewBox="0 0 354.33071 70.866142"
   id="svg2"
   version="1.1"
   inkscape:version="0.91 r13725"
   sodipodi:docname="logo.svg">
  <defs
     id="defs4">
    <clipPath
       clipPathUnits="userSpaceOnUse"
       id="clipPath4222">
      <path
         style="fill:#ff0000;fill-opacity:1;fill-rule:evenodd;stroke:#000000;stroke-width:1px;stroke-linecap:butt;stroke-linejoin:miter;stroke-opacity:1"
         d="M 50.446352,94.546329 C 83.023772,73.080586 100.61478,68.621557 100.61478,68.621557 l 305.10663,-1.340638 -25.24734,33.959211 -88.81876,6.81635 -222.390194,7.53064 z"
         id="path4224"
         inkscape:connector-curvature="0"
         sodipodi:nodetypes="ccccccc" />
    </clipPath>
    <clipPath
       clipPathUnits="userSpaceOnUse"
       id="clipPath4216">
      <path
         style="fill:#000000;fill-opacity:1;fill-rule:evenodd;stroke:#000000;stroke-width:1.22348595px;stroke-linecap:butt;stroke-linejoin:miter;stroke-opacity:1"
         d="M 31.201798,34.336327 C 50.209528,20.572109 66.81398,18.605723 66.81398,18.605723 L 452.43054,8.5557641 447.18704,67.108255 11.975591,61.864761 Z"
         id="path4218"
         inkscape:connector-curvature="0" />
    </clipPath>
  </defs>
  <sodipodi:namedview
     id="base"
     pagecolor="#ffffff"
     bordercolor="#666666"
     borderopacity="1.0"
     inkscape:pageopacity="0.0"
     inkscape:pageshadow="2"
     inkscape:zoom="1.979899"
     inkscape:cx="92.504205"
     inkscape:cy="22.640971"
     inkscape:document-units="px"
     inkscape:current-layer="layer1"
     showgrid="false"
     inkscape:window-width="1366"
     inkscape:window-height="704"
     inkscape:window-x="0"
     inkscape:window-y="27"
     inkscape:window-maximized="1" />
  <metadata
     id="metadata7">
    <rdf:RDF>
      <cc:Work
         rdf:about="">
        <dc:format>image/svg+xml</dc:format>
        <dc:type
           rdf:resource="http://purl.org/dc/dcmitype/StillImage" />
        <dc:title />
      </cc:Work>
    </rdf:RDF>
  </metadata>
  <g
     inkscape:label="Layer 1"
     inkscape:groupmode="layer"
     id="layer1"
     transform="translate(0,-981.49603)">
    <g
       id="g4220"
       transform="translate(-11.111678,-2.5253813)">
      <g
         transform="translate(-36.365492,941.46217)"
         id="g4226">
        <g
           id="g4154"
           transform="matrix(0.38740266,0,0,0.38740266,48.711712,56.054902)">
          <g
             style="stroke:#6f6f6f;stroke-width:1;stroke-miterlimit:4;stroke-dasharray:none;stroke-opacity:1"
             id="g4150">
            <path
               style="fill:none;fill-rule:evenodd;stroke:#6f6f6f;stroke-width:1;stroke-linecap:butt;stroke-linejoin:miter;stroke-miterlimit:4;stroke-dasharray:none;stroke-opacity:1"
               d="m 44.120254,55.28546 c -11.842976,0.9641 -21.88859,1.523552 -30.483195,0.05618 -20.7081266,-3.535534 3.788072,18.5795 22.223356,14.394674 18.435284,-4.184826 55.55839,-42.173868 76.266525,-49.244936 20.70812,-7.071068 6.0609,15.657363 -9.59646,23.738585 -7.212626,3.722647 -34.06725,16.698538 -52.338798,18.912638"
               id="path4136"
               inkscape:connector-curvature="0"
               sodipodi:nodetypes="cszssc" />
            <path
               style="fill:none;fill-rule:evenodd;stroke:#6f6f6f;stroke-width:1;stroke-linecap:butt;stroke-linejoin:miter;stroke-miterlimit:4;stroke-dasharray:none;stroke-opacity:1"
               d="m 42.931483,60.897481 c 0,0 11.349144,-42.9993 -3.280818,-51.5256644 C 35.273939,6.8210536 25.462998,10.600317 22.639146,11.81054 19.815295,13.020762 18.297004,11.444847 21.095908,8.1270728 23.894812,4.8092984 43.436559,-12.338579 61.114229,-0.72182454 78.791898,10.89493 83.602814,18.792322 89.158653,33.94461"
               id="path4138"
               inkscape:connector-curvature="0"
               sodipodi:nodetypes="cszzsc" />
          </g>
          <path
             inkscape:connector-curvature="0"
             id="path4146"
             d="m 51.154481,62.567693 c 0.05787,-0.05409 1.071182,-0.752821 2.251798,-1.55273 4.381078,-2.968341 11.147857,-7.942618 19.034769,-13.992507 11.752393,-9.01502 16.808194,-12.792555 21.170017,-15.81757 10.996865,-7.626553 18.669755,-11.356746 23.993715,-11.664616 2.58138,-0.149273 3.57098,0.156163 4.15309,1.281836 0.62932,1.216983 0.32344,2.90673 -1.00611,5.557812 -1.4437,2.878704 -3.12686,5.13411 -6.22687,8.343889 -4.72537,4.8927 -8.69673,7.688511 -15.914284,11.203547 -13.001373,6.331823 -26.769206,11.778225 -36.589514,14.4744 -5.451647,1.496759 -11.424348,2.687239 -10.866611,2.165939 z"
             style="opacity:1;fill:#858282;fill-opacity:1;fill-rule:nonzero;stroke:none;stroke-width:0.2;stroke-linejoin:miter;stroke-miterlimit:4;stroke-dasharray:none;stroke-dashoffset:0;stroke-opacity:1" />
          <path
             inkscape:connector-curvature="0"
             id="path4148"
             d="M 26.258429,69.633698 C 23.549509,69.107383 21.45475,68.517191 19.40345,67.702326 11.910196,64.72569 5.3765337,59.346221 6.0406618,56.700124 c 0.3814124,-1.519666 3.3260839,-1.841458 8.7272822,-0.953706 2.448951,0.402516 4.269901,0.47754 11.616754,0.478621 5.033409,7.57e-4 10.506544,-0.142073 12.960864,-0.338194 2.336566,-0.186714 4.318594,-0.269183 4.40451,-0.183267 0.08592,0.08592 -0.105006,1.239758 -0.424274,2.564093 -0.492952,2.044794 -0.561716,3.039897 -0.180328,2.609562 0.37958,-0.428297 2.455487,-11.316016 3.176132,-16.658196 C 48.588405,27.415152 46.920479,15.498688 41.623276,10.651922 39.702764,8.8947168 38.776507,8.5228334 36.050641,8.4145587 32.732108,8.2827424 27.915876,9.373442 23.298716,11.302401 c -4.323069,1.806094 -4.607203,-0.555957 -0.537517,-4.4684482 7.40671,-7.12061906 18.116529,-11.7147731 26.225663,-11.2499301 6.077373,0.3483756 9.798575,2.0065257 17.803938,7.9333549 8.826117,6.5344804 13.728948,12.1068034 17.829407,20.2640544 1.408292,2.801584 4.141411,9.373564 4.141411,9.958316 0,0.180001 -2.017148,1.840258 -4.482552,3.689456 -2.465403,1.8492 -7.380427,5.587929 -10.922274,8.308285 -20.068294,15.41368 -28.498899,20.891212 -35.801857,23.261179 -2.180745,0.707698 -2.856047,0.807761 -5.993205,0.888027 -2.307359,0.05904 -4.149621,-0.02885 -5.303301,-0.252997 z"
             style="opacity:1;fill:#aeaeae;fill-opacity:1;fill-rule:nonzero;stroke:none;stroke-width:0.2;stroke-linejoin:miter;stroke-miterlimit:4;stroke-dasharray:none;stroke-dashoffset:0;stroke-opacity:1" />
        </g>
      </g>
      <g
         clip-path="url(#clipPath4216)"
         id="flowRoot4167"
         style="font-style:normal;font-weight:normal;font-size:40px;line-height:125%;font-family:sans-serif;letter-spacing:0px;word-spacing:0px;fill:#505050;fill-opacity:1;stroke:none;stroke-width:1px;stroke-linecap:butt;stroke-linejoin:miter;stroke-opacity:1"
         transform="matrix(0.8173367,0,0,0.8173367,3.0690533,996.08356)">
        <path
           id="path4180"
           style="fill:#505050;fill-opacity:1"
           d="m 46.572266,21.62192 q -4.296875,0 -6.835938,3.203125 -2.519531,3.203125 -2.519531,8.730468 0,5.507813 2.519531,8.710938 2.539063,3.203125 6.835938,3.203125 4.296875,0 6.796875,-3.203125 2.519531,-3.203125 2.519531,-8.710938 0,-5.527343 -2.519531,-8.730468 -2.5,-3.203125 -6.796875,-3.203125 z m 0,-3.203125 q 6.132812,0 9.804687,4.121093 3.671875,4.101563 3.671875,11.015625 0,6.894532 -3.671875,11.015625 -3.671875,4.101563 -9.804687,4.101563 -6.152344,0 -9.84375,-4.101563 -3.671875,-4.101562 -3.671875,-11.015625 0,-6.914062 3.671875,-11.015625 3.691406,-4.121093 9.84375,-4.121093 z"
           inkscape:connector-curvature="0" />
        <path
           id="path4182"
           style="fill:#505050;fill-opacity:1"
           d="m 69.541016,44.825045 0,11.601562 -3.613282,0 0,-30.195312 3.613282,0 0,3.320312 q 1.132812,-1.953125 2.851562,-2.890625 1.738281,-0.957031 4.140625,-0.957031 3.984375,0 6.464844,3.164062 2.5,3.164063 2.5,8.320313 0,5.15625 -2.5,8.320312 -2.480469,3.164063 -6.464844,3.164063 -2.402344,0 -4.140625,-0.9375 -1.71875,-0.957031 -2.851562,-2.910156 z m 12.226562,-7.636719 q 0,-3.964844 -1.640625,-6.210938 -1.621094,-2.265625 -4.472656,-2.265625 -2.851563,0 -4.492188,2.265625 -1.621093,2.246094 -1.621093,6.210938 0,3.964844 1.621093,6.230469 1.640625,2.246093 4.492188,2.246093 2.851562,0 4.472656,-2.246093 1.640625,-2.265625 1.640625,-6.230469 z"
           inkscape:connector-curvature="0" />
        <path
           id="path4184"
           style="fill:#505050;fill-opacity:1"
           d="m 110.16602,36.270357 0,1.757813 -16.523442,0 q 0.234375,3.710937 2.226563,5.664062 2.011718,1.933594 5.585939,1.933594 2.07031,0 4.0039,-0.507813 1.95313,-0.507812 3.86719,-1.523437 l 0,3.398437 q -1.93359,0.820313 -3.96484,1.25 -2.03125,0.429688 -4.1211,0.429688 -5.234371,0 -8.300777,-3.046875 -3.046875,-3.046875 -3.046875,-8.242188 0,-5.371093 2.890625,-8.515625 2.910156,-3.164062 7.832027,-3.164062 4.41407,0 6.97266,2.851562 2.57813,2.832032 2.57813,7.714844 z m -3.59375,-1.054687 q -0.0391,-2.949219 -1.66016,-4.707032 -1.60156,-1.757812 -4.25781,-1.757812 -3.007816,0 -4.824222,1.699219 -1.796875,1.699218 -2.070312,4.785156 l 12.812504,-0.01953 z"
           inkscape:connector-curvature="0" />
        <path
           id="path4186"
           style="fill:#505050;fill-opacity:1"
           d="m 134.24805,34.90317 0,13.203125 -3.59375,0 0,-13.085938 q 0,-3.105469 -1.21094,-4.648437 -1.21094,-1.542969 -3.63281,-1.542969 -2.91016,0 -4.58985,1.855469 -1.67968,1.855468 -1.67968,5.058593 l 0,12.363282 -3.61329,0 0,-21.875 3.61329,0 0,3.398437 q 1.28906,-1.972656 3.02734,-2.949219 1.75781,-0.976562 4.04297,-0.976562 3.76953,0 5.70312,2.34375 1.9336,2.324219 1.9336,6.855469 z"
           inkscape:connector-curvature="0" />
        <path
           id="path4188"
           style="fill:#505050;fill-opacity:1"
           d="m 171.82617,19.90317 0,3.847656 q -2.24609,-1.074219 -4.23828,-1.601563 -1.99219,-0.527343 -3.84766,-0.527343 -3.22265,0 -4.98046,1.25 -1.73829,1.25 -1.73829,3.554687 0,1.933594 1.15235,2.929688 1.17187,0.976562 4.41406,1.582031 l 2.38281,0.488281 q 4.41407,0.839844 6.50391,2.96875 2.10937,2.109375 2.10937,5.664063 0,4.238281 -2.85156,6.425781 -2.83203,2.1875 -8.32031,2.1875 -2.07031,0 -4.41406,-0.46875 -2.32422,-0.46875 -4.82422,-1.386719 l 0,-4.0625 q 2.40234,1.347656 4.70703,2.03125 2.30469,0.683594 4.53125,0.683594 3.37891,0 5.21484,-1.328125 1.83594,-1.328125 1.83594,-3.789063 0,-2.148437 -1.32812,-3.359375 -1.3086,-1.210937 -4.31641,-1.816406 l -2.40234,-0.46875 q -4.41407,-0.878906 -6.38672,-2.753906 -1.97266,-1.875 -1.97266,-5.214844 0,-3.867187 2.71484,-6.09375 2.73438,-2.226562 7.51954,-2.226562 2.05078,0 4.17968,0.371093 2.12891,0.371094 4.35547,1.113282 z"
           inkscape:connector-curvature="0" />
        <path
           id="path4190"
           style="fill:#505050;fill-opacity:1"
           d="m 188.05664,28.750826 q -2.89062,0 -4.57031,2.265625 -1.67969,2.246094 -1.67969,6.171875 0,3.925781 1.66016,6.191406 1.67968,2.246094 4.58984,2.246094 2.87109,0 4.55078,-2.265625 1.67969,-2.265625 1.67969,-6.171875 0,-3.886719 -1.67969,-6.152344 -1.67969,-2.285156 -4.55078,-2.285156 z m 0,-3.046875 q 4.6875,0 7.36328,3.046875 2.67578,3.046875 2.67578,8.4375 0,5.371094 -2.67578,8.4375 -2.67578,3.046875 -7.36328,3.046875 -4.70703,0 -7.38281,-3.046875 -2.65625,-3.066406 -2.65625,-8.4375 0,-5.390625 2.65625,-8.4375 2.67578,-3.046875 7.38281,-3.046875 z"
           inkscape:connector-curvature="0" />
        <path
           id="path4192"
           style="fill:#505050;fill-opacity:1"
           d="m 203.66211,39.473482 0,-13.242187 3.59375,0 0,13.105468 q 0,3.105469 1.21094,4.667969 1.21093,1.542969 3.63281,1.542969 2.91016,0 4.58984,-1.855469 1.69922,-1.855469 1.69922,-5.058594 l 0,-12.402343 3.59375,0 0,21.875 -3.59375,0 0,-3.359375 q -1.30859,1.992187 -3.04687,2.96875 -1.71875,0.957031 -4.00391,0.957031 -3.76953,0 -5.72266,-2.34375 -1.95312,-2.34375 -1.95312,-6.855469 z m 9.04297,-13.769531 0,0 z"
           inkscape:connector-curvature="0" />
        <path
           id="path4194"
           style="fill:#505050;fill-opacity:1"
           d="m 242.09961,29.59067 q -0.60547,-0.351563 -1.32813,-0.507813 -0.70312,-0.175781 -1.5625,-0.175781 -3.04687,0 -4.6875,1.992187 -1.62109,1.972657 -1.62109,5.683594 l 0,11.523438 -3.61328,0 0,-21.875 3.61328,0 0,3.398437 q 1.13281,-1.992187 2.94922,-2.949219 1.81641,-0.976562 4.41406,-0.976562 0.3711,0 0.82031,0.05859 0.44922,0.03906 0.9961,0.136718 l 0.0195,3.691407 z"
           inkscape:connector-curvature="0" />
        <path
           id="path4196"
           style="fill:#505050;fill-opacity:1"
           d="m 260.79102,27.071138 0,3.359375 q -1.52344,-0.839843 -3.06641,-1.25 -1.52344,-0.429687 -3.08594,-0.429687 -3.49609,0 -5.42969,2.226562 -1.93359,2.207032 -1.93359,6.210938 0,4.003906 1.93359,6.230469 1.9336,2.207031 5.42969,2.207031 1.5625,0 3.08594,-0.410156 1.54297,-0.429688 3.06641,-1.269532 l 0,3.320313 q -1.50391,0.703125 -3.125,1.054687 -1.60157,0.351563 -3.41797,0.351563 -4.94141,0 -7.85157,-3.105469 -2.91015,-3.105469 -2.91015,-8.378906 0,-5.351563 2.92969,-8.417969 2.94921,-3.066406 8.0664,-3.066406 1.66016,0 3.24219,0.351562 1.58203,0.332032 3.06641,1.015625 z"
           inkscape:connector-curvature="0" />
        <path
           id="path4198"
           style="fill:#505050;fill-opacity:1"
           d="m 285.79102,36.270357 0,1.757813 -16.52344,0 q 0.23437,3.710937 2.22656,5.664062 2.01172,1.933594 5.58594,1.933594 2.07031,0 4.0039,-0.507813 1.95313,-0.507812 3.86719,-1.523437 l 0,3.398437 q -1.93359,0.820313 -3.96484,1.25 -2.03125,0.429688 -4.1211,0.429688 -5.23437,0 -8.30078,-3.046875 -3.04687,-3.046875 -3.04687,-8.242188 0,-5.371093 2.89062,-8.515625 2.91016,-3.164062 7.83203,-3.164062 4.41407,0 6.97266,2.851562 2.57813,2.832032 2.57813,7.714844 z m -3.59375,-1.054687 q -0.0391,-2.949219 -1.66016,-4.707032 -1.60156,-1.757812 -4.25781,-1.757812 -3.00782,0 -4.82422,1.699219 -1.79688,1.699218 -2.07031,4.785156 l 12.8125,-0.01953 z"
           inkscape:connector-curvature="0" />
        <path
           id="path4200"
           style="fill:#505050;fill-opacity:1"
           d="m 301.98242,18.946138 3.98438,0 6.13281,24.648438 6.11328,-24.648438 4.43359,0 6.13282,24.648438 6.11328,-24.648438 4.0039,0 -7.32421,29.160157 -4.96094,0 -6.15235,-25.3125 -6.21093,25.3125 -4.96094,0 -7.30469,-29.160157 z"
           inkscape:connector-curvature="0" />
        <path
           id="path4202"
           style="fill:#505050;fill-opacity:1"
           d="m 343.0957,26.231295 3.59375,0 0,21.875 -3.59375,0 0,-21.875 z m 0,-8.515625 3.59375,0 0,4.550781 -3.59375,0 0,-4.550781 z"
           inkscape:connector-curvature="0" />
        <path
           id="path4204"
           style="fill:#505050;fill-opacity:1"
           d="m 352.62695,26.231295 17.07032,0 0,3.28125 -13.51563,15.722656 13.51563,0 0,2.871094 -17.5586,0 0,-3.28125 13.51563,-15.722657 -13.02735,0 0,-2.871093 z"
           inkscape:connector-curvature="0" />
        <path
           id="path4206"
           style="fill:#505050;fill-opacity:1"
           d="m 385.14648,37.110201 q -4.35546,0 -6.03515,0.996094 -1.67969,0.996093 -1.67969,3.398437 0,1.914063 1.25,3.046875 1.26953,1.113281 3.4375,1.113281 2.98828,0 4.78516,-2.109375 1.8164,-2.128906 1.8164,-5.644531 l 0,-0.800781 -3.57422,0 z m 7.16797,-1.484375 0,12.480469 -3.59375,0 0,-3.320313 q -1.23047,1.992188 -3.0664,2.949219 -1.83594,0.9375 -4.49219,0.9375 -3.35938,0 -5.35156,-1.875 -1.97266,-1.894531 -1.97266,-5.058594 0,-3.691406 2.46094,-5.566406 2.48047,-1.875 7.38281,-1.875 l 5.03906,0 0,-0.351563 q 0,-2.480468 -1.64062,-3.828125 -1.6211,-1.367187 -4.57031,-1.367187 -1.875,0 -3.65235,0.449219 -1.77734,0.449218 -3.41797,1.347656 l 0,-3.320313 q 1.97266,-0.761718 3.82813,-1.132812 1.85547,-0.390625 3.61328,-0.390625 4.74609,0 7.08984,2.460937 2.34375,2.460938 2.34375,7.460938 z"
           inkscape:connector-curvature="0" />
        <path
           id="path4208"
           style="fill:#505050;fill-opacity:1"
           d="m 412.41211,29.59067 q -0.60547,-0.351563 -1.32813,-0.507813 -0.70312,-0.175781 -1.5625,-0.175781 -3.04687,0 -4.6875,1.992187 -1.62109,1.972657 -1.62109,5.683594 l 0,11.523438 -3.61328,0 0,-21.875 3.61328,0 0,3.398437 q 1.13281,-1.992187 2.94922,-2.949219 1.81641,-0.976562 4.41406,-0.976562 0.3711,0 0.82031,0.05859 0.44922,0.03906 0.9961,0.136718 l 0.0195,3.691407 z"
           inkscape:connector-curvature="0" />
        <path
           id="path4210"
           style="fill:#505050;fill-opacity:1"
           d="m 429.91211,29.551607 0,-11.835937 3.59375,0 0,30.390625 -3.59375,0 0,-3.28125 q -1.13281,1.953125 -2.87109,2.910156 -1.71875,0.9375 -4.14063,0.9375 -3.96484,0 -6.46484,-3.164063 -2.48047,-3.164062 -2.48047,-8.320312 0,-5.15625 2.48047,-8.320313 2.5,-3.164062 6.46484,-3.164062 2.42188,0 4.14063,0.957031 1.73828,0.9375 2.87109,2.890625 z m -12.24609,7.636719 q 0,3.964844 1.62109,6.230469 1.64062,2.246093 4.49219,2.246093 2.85156,0 4.49218,-2.246093 1.64063,-2.265625 1.64063,-6.230469 0,-3.964844 -1.64063,-6.210938 -1.64062,-2.265625 -4.49218,-2.265625 -2.85157,0 -4.49219,2.265625 -1.62109,2.246094 -1.62109,6.210938 z"
           inkscape:connector-curvature="0" />
      </g>
    </g>
  </g>
</svg>
